{"glyphs":{":":{"x_min":0,"x_max":204,"ha":204,"o":"m 59 324 q 59 347 73 360 q 87 374 112 374 q 136 374 149 360 q 162 347 162 324 q 162 300 149 286 q 136 272 112 272 q 87 272 73 286 q 59 300 59 324 z m 22 43 q 22 66 36 80 q 50 93 75 93 q 99 93 112 80 q 125 66 125 43 q 125 19 112 5 q 99 -9 75 -9 q 50 -9 36 5 q 22 19 22 43 z"},"$":{"x_min":0,"x_max":460,"ha":460,"o":"m 460 595 l 446 471 q 445 468 440 468 q 435 468 434 471 q 423 531 396 570 q 369 609 328 616 l 285 372 l 309 354 q 367 311 398 274 q 428 238 428 186 q 428 168 426 159 q 413 90 359 43 q 305 -4 218 -11 l 201 -109 q 200 -114 190 -114 q 184 -114 180 -112 q 175 -109 176 -105 l 192 -12 l 189 -12 q 151 -12 116 -4 q 81 3 44 22 q 34 29 38 41 l 64 179 q 64 184 70 184 q 75 184 75 179 q 102 24 196 10 l 244 284 l 226 298 q 188 327 166 346 q 145 365 130 392 q 115 418 115 452 q 115 466 118 481 q 132 549 184 588 q 236 628 306 635 l 321 722 q 322 727 331 727 q 337 727 342 724 q 347 722 346 718 l 332 636 l 334 636 q 391 636 449 612 q 463 605 460 595 z m 263 390 l 303 617 q 253 614 228 576 q 203 539 203 497 q 203 465 218 440 q 234 415 263 390 z m 334 142 q 334 179 316 209 q 299 239 267 266 l 222 9 q 265 11 294 39 q 324 67 332 117 q 334 135 334 142 z"},"?":{"x_min":0,"x_max":295,"ha":295,"o":"m 108 290 q 108 301 109 306 q 114 337 130 358 q 147 378 179 406 q 213 435 231 458 q 249 480 255 517 q 257 533 257 541 q 257 570 246 588 q 234 607 212 607 q 179 607 173 565 q 170 542 160 526 q 150 510 124 510 q 105 510 94 521 q 84 532 84 548 q 84 583 125 604 q 166 625 220 625 q 275 625 308 600 q 341 575 341 529 q 341 514 339 505 q 333 475 318 452 q 302 428 288 414 q 273 401 239 372 q 194 337 175 310 q 156 284 151 249 q 149 233 149 222 q 149 214 151 192 q 152 188 146 186 q 139 183 138 187 q 124 209 116 238 q 108 266 108 290 z m 66 43 q 66 66 80 80 q 94 93 119 93 q 143 93 156 80 q 169 66 169 43 q 169 19 156 5 q 143 -9 119 -9 q 94 -9 80 5 q 66 19 66 43 z"},"<":{"x_min":0,"x_max":407,"ha":407,"o":"m 376 45 q 376 22 369 25 l 35 173 q 30 176 30 190 q 30 205 35 207 l 369 354 q 376 358 376 335 q 376 313 369 309 l 91 190 l 369 71 q 376 68 376 45 z"},"'":{"x_min":0,"x_max":136,"ha":136,"o":"m 99 609 q 100 620 134 630 q 169 640 191 640 q 202 640 200 637 l 85 299 q 84 296 77 296 q 70 295 70 298 z"},"=":{"x_min":0,"x_max":468,"ha":468,"o":"m 29 261 q 29 269 30 276 q 31 282 33 282 l 434 282 q 436 282 438 275 q 439 268 439 260 q 439 251 438 244 q 436 237 434 237 l 34 237 q 32 237 30 244 q 29 252 29 261 z m 29 121 q 29 129 30 136 q 31 142 33 142 l 434 142 q 436 142 438 135 q 439 128 439 120 q 439 111 438 104 q 436 97 434 97 l 34 97 q 32 97 30 104 q 29 112 29 121 z"},"a":{"x_min":0,"x_max":441,"ha":441,"o":"m 416 78 q 419 78 421 74 q 423 71 421 69 q 388 30 361 10 q 334 -9 309 -9 q 286 -9 275 4 q 264 18 264 47 q 264 68 268 89 l 282 169 q 242 85 188 36 q 133 -13 82 -13 q 51 -13 34 6 q 17 24 17 62 q 17 131 60 210 q 104 290 168 344 q 233 399 291 399 q 310 399 328 392 q 347 386 360 373 q 380 390 389 407 q 391 409 393 409 q 396 409 399 408 q 402 406 401 405 l 343 89 q 340 74 340 64 q 340 52 344 45 q 348 38 355 38 q 374 38 413 77 q 414 78 416 78 z m 302 289 q 302 320 287 338 q 272 355 244 355 q 212 355 182 330 q 152 304 130 260 q 109 215 100 160 q 96 136 96 114 q 96 52 137 52 q 173 52 212 93 q 250 134 276 191 q 302 248 302 289 z"},"L":{"x_min":0,"x_max":502,"ha":502,"o":"m 13 12 q 42 12 56 17 q 71 22 78 36 q 85 50 91 81 l 173 544 q 177 570 177 576 q 177 598 164 606 q 152 613 119 613 q 117 613 117 619 q 117 625 119 625 l 164 624 q 202 622 225 622 q 249 622 289 624 l 335 625 q 337 625 337 619 q 337 613 335 613 q 306 613 292 608 q 277 602 270 588 q 263 573 257 543 l 176 85 q 173 66 173 54 q 173 34 183 27 q 193 20 219 20 l 270 20 q 337 20 387 56 q 437 92 475 165 q 475 166 479 166 q 487 166 486 162 q 463 79 452 15 q 450 7 446 4 q 443 0 436 0 l 13 0 q 11 0 11 6 q 11 12 13 12 z"},"3":{"x_min":0,"x_max":392,"ha":392,"o":"m 245 330 q 298 326 326 291 q 354 256 354 205 q 354 189 351 171 q 338 89 281 38 q 224 -12 145 -12 q 58 -12 12 66 l 11 68 q 11 70 16 72 q 20 75 21 73 q 38 51 66 38 q 93 24 119 24 q 180 24 216 66 q 252 107 263 172 q 267 192 267 214 q 267 318 143 318 q 139 318 140 324 q 140 331 143 331 q 214 331 250 368 q 287 404 298 470 q 302 490 302 511 q 302 588 230 588 q 193 588 156 568 q 120 549 100 513 q 99 510 95 510 q 92 510 90 512 q 88 515 90 518 q 119 572 168 604 q 216 636 271 636 q 326 636 358 604 q 390 573 390 522 q 390 508 387 491 q 378 439 340 394 q 301 350 245 330 z"},";":{"x_min":0,"x_max":222,"ha":222,"o":"m 162 324 q 162 300 149 286 q 136 272 112 272 q 87 272 73 286 q 59 300 59 324 q 59 347 73 360 q 87 374 112 374 q 136 374 149 360 q 162 347 162 324 z m 140 24 q 140 7 136 -9 q 128 -48 98 -88 q 67 -129 23 -160 q 22 -161 20 -161 q 17 -161 15 -157 q 13 -153 16 -151 q 85 -93 96 -27 q 98 -15 98 -12 q 98 -8 96 0 q 86 -8 71 -8 q 48 -8 35 6 q 22 21 22 41 q 22 63 37 78 q 52 93 79 93 q 108 93 124 75 q 140 57 140 24 z"},"J":{"x_min":0,"x_max":305,"ha":305,"o":"m -29 -182 q 16 -155 42 -100 q 69 -46 85 40 l 174 544 q 177 564 177 576 q 177 598 164 606 q 152 613 120 613 q 117 613 117 619 q 117 625 120 625 l 164 624 q 202 622 227 622 q 255 622 295 624 l 336 625 q 339 625 339 619 q 339 613 336 613 q 308 613 294 607 q 279 601 272 587 q 265 573 259 542 l 175 67 q 161 -11 138 -60 q 114 -108 76 -138 q 38 -168 -23 -193 q -25 -194 -28 -189 q -31 -184 -29 -182 z"},"V":{"x_min":0,"x_max":597,"ha":597,"o":"m 670 613 q 637 613 610 594 q 584 575 554 516 l 286 1 q 283 -4 274 -4 q 263 -4 261 1 l 134 542 q 125 581 112 597 q 98 613 73 613 q 70 613 70 619 q 70 625 73 625 l 117 624 q 147 622 162 622 q 194 622 236 624 l 278 625 q 281 625 281 619 q 281 613 278 613 q 250 613 235 604 q 220 595 220 573 q 220 564 223 552 l 322 122 l 526 520 q 540 548 540 567 q 540 589 523 601 q 506 613 475 613 q 472 613 472 619 q 472 625 475 625 l 518 624 q 554 622 585 622 q 603 622 629 624 l 670 625 q 674 625 674 619 q 674 613 670 613 z"},"\"":{"x_min":0,"x_max":331,"ha":331,"o":"m 114 609 q 115 620 150 630 q 184 640 206 640 q 217 640 215 637 l 100 299 q 99 296 92 296 q 85 295 85 298 z m 271 609 q 272 620 306 630 q 341 640 363 640 q 374 640 372 637 l 257 299 q 256 296 249 296 q 242 295 242 298 z"},"7":{"x_min":0,"x_max":401,"ha":401,"o":"m 41 9 q 41 14 47 23 l 376 547 q 378 550 378 552 q 377 554 373 554 q 240 554 190 550 q 139 546 121 534 q 103 521 89 486 q 88 484 84 484 q 82 484 80 486 q 77 487 78 489 l 139 653 q 139 654 143 654 q 152 654 151 650 q 148 643 148 637 q 148 630 156 628 q 165 625 188 625 l 427 625 q 431 625 433 620 q 435 615 433 612 l 142 15 q 138 6 134 3 q 131 0 123 0 l 54 0 q 41 0 41 9 z"},"S":{"x_min":0,"x_max":467,"ha":467,"o":"m 44 22 q 34 29 38 41 l 64 179 q 64 184 70 184 q 75 184 75 179 q 104 9 215 9 q 261 9 292 37 q 324 65 332 117 q 334 135 334 142 q 334 191 306 226 q 278 260 226 298 q 188 327 166 346 q 145 365 130 392 q 115 418 115 452 q 115 466 118 481 q 133 556 194 596 q 256 636 334 636 q 391 636 449 612 q 463 605 460 595 l 446 471 q 445 468 440 468 q 435 468 434 471 q 422 537 390 577 q 359 617 311 617 q 274 617 250 598 q 226 579 214 551 q 203 523 203 497 q 203 467 217 442 q 231 418 251 400 q 271 383 309 354 q 367 311 398 274 q 428 238 428 186 q 428 168 426 159 q 413 84 350 36 q 288 -12 189 -12 q 151 -12 116 -4 q 81 3 44 22 z"},"}":{"x_min":0,"x_max":263,"ha":263,"o":"m 242 641 q 242 606 229 528 q 213 438 213 397 q 213 359 226 339 q 238 319 268 310 q 270 310 270 304 q 270 297 268 297 q 234 292 213 270 q 192 247 178 202 q 164 158 150 79 q 135 -7 116 -48 q 98 -89 68 -103 q 37 -117 -21 -117 q -24 -117 -24 -111 q -24 -105 -21 -105 q 37 -105 56 1 q 78 117 94 170 q 111 222 138 250 q 166 279 223 303 q 173 323 154 347 q 135 371 135 413 q 135 433 140 464 q 144 495 148 517 q 151 539 153 548 l 163 607 q 166 628 166 645 q 166 677 155 695 q 144 713 125 713 q 122 713 122 719 q 122 725 125 725 q 171 725 196 718 q 220 711 231 694 q 242 676 242 641 z"},"Z":{"x_min":0,"x_max":554,"ha":554,"o":"m 11 0 q 7 0 6 4 q 5 9 7 13 l 474 600 q 479 605 478 606 q 478 608 472 608 q 346 608 284 598 q 223 589 188 562 q 152 536 114 475 q 112 471 107 472 q 102 474 104 478 l 174 655 q 174 656 177 656 q 180 656 183 654 q 186 653 185 651 q 183 646 183 639 q 183 630 192 628 q 202 625 230 625 l 577 625 q 581 625 583 620 q 585 615 582 612 l 120 27 q 116 22 116 20 q 117 19 122 19 l 261 19 q 353 19 408 48 q 462 76 504 148 q 506 152 512 151 q 517 150 516 146 l 478 8 q 478 5 475 2 q 472 -2 469 -2 q 330 0 11 0 z"},"x":{"x_min":0,"x_max":427,"ha":427,"o":"m 426 335 q 424 321 413 312 q 402 302 386 302 q 375 302 368 306 q 360 310 352 317 q 347 322 341 326 q 335 329 328 329 q 314 329 297 305 l 245 228 l 288 90 q 297 60 308 51 q 320 42 335 42 q 349 42 362 50 q 375 58 391 74 q 392 75 394 75 q 398 75 400 72 q 402 68 399 66 q 362 27 334 8 q 306 -10 281 -10 q 257 -10 242 4 q 228 19 215 58 l 187 147 l 133 62 q 105 17 90 4 q 75 -10 52 -10 q 28 -10 9 8 q -10 27 -6 50 q -4 63 7 72 q 18 82 33 82 q 45 82 52 78 q 59 75 68 68 q 79 57 90 57 q 105 57 122 80 l 181 167 l 141 292 q 132 322 120 332 q 107 343 93 343 q 68 343 36 311 q 35 310 33 310 q 30 310 28 314 q 25 317 28 319 q 65 358 94 376 q 122 395 146 395 q 171 395 186 380 q 201 365 214 325 l 238 248 l 286 323 q 314 368 329 382 q 344 395 366 395 q 390 395 410 376 q 429 358 426 335 z"},")":{"x_min":0,"x_max":287,"ha":287,"o":"m 264 425 q 264 370 253 304 q 228 163 154 50 q 81 -63 -22 -117 l -23 -117 q -26 -117 -28 -114 q -30 -111 -28 -109 q 43 -37 88 64 q 134 165 157 304 q 172 391 172 467 q 172 607 119 717 l 119 718 q 119 721 122 724 q 124 726 126 725 q 195 683 230 606 q 264 528 264 425 z"},"&":{"x_min":0,"x_max":760,"ha":760,"o":"m 769 356 q 769 329 753 302 q 737 274 710 256 q 684 239 655 239 q 627 239 586 258 q 566 127 492 58 q 419 -12 313 -12 q 242 -12 186 20 q 131 53 100 107 q 70 161 70 224 q 70 251 76 278 q 87 332 120 374 q 154 417 202 441 q 250 465 302 465 q 351 465 386 444 q 438 506 438 547 q 438 566 432 575 q 425 584 411 595 q 399 603 392 612 q 386 620 386 636 q 386 656 398 668 q 410 681 430 681 q 457 681 472 659 q 486 637 486 601 q 486 541 447 483 q 408 425 352 376 q 297 328 204 256 l 155 218 q 168 137 222 88 q 277 40 349 40 q 403 40 448 67 q 494 94 525 145 q 556 196 566 267 q 550 275 542 280 q 501 301 476 311 q 452 321 430 321 q 414 321 406 315 q 398 309 398 300 q 398 291 409 273 q 420 258 420 246 q 420 235 412 226 q 405 217 390 217 q 376 217 366 226 q 357 235 357 254 q 357 282 376 309 q 395 336 426 354 q 456 371 487 371 q 513 371 541 360 q 569 349 606 329 q 641 311 663 302 q 685 294 703 294 q 717 294 725 299 q 733 304 733 313 q 733 320 728 326 q 722 333 721 334 q 713 343 709 350 q 705 357 705 366 q 705 378 714 386 q 722 393 737 393 q 769 393 769 356 z m 152 262 q 152 247 153 240 q 182 263 184 265 q 278 339 319 377 q 297 436 249 436 q 214 436 190 400 q 166 365 156 310 q 152 287 152 262 z"},"_":{"x_min":0,"x_max":363,"ha":363,"o":"m -12 -55 q -12 -47 -11 -40 q -10 -34 -8 -34 l 311 -34 q 313 -34 314 -41 q 316 -48 316 -57 q 316 -65 314 -72 q 313 -79 311 -79 l -7 -79 q -9 -79 -10 -72 q -12 -64 -12 -55 z"},"v":{"x_min":0,"x_max":443,"ha":443,"o":"m 88 112 q 91 139 102 166 q 113 194 136 238 q 158 282 162 291 q 169 307 169 311 q 169 319 157 319 l 108 319 q 72 319 57 309 q 42 299 33 272 q 32 269 27 269 q 24 269 22 271 q 20 273 21 276 q 37 323 48 346 q 60 368 77 378 q 94 387 124 387 l 216 387 q 227 387 227 383 q 227 380 224 375 q 201 323 183 269 q 165 215 160 178 q 157 162 157 147 q 157 105 177 80 q 197 55 230 55 q 274 55 313 95 q 352 135 364 198 q 368 215 368 232 q 368 257 360 272 q 351 288 335 305 q 322 319 316 329 q 309 339 309 352 q 309 374 324 385 q 338 396 359 396 q 410 396 410 309 q 410 289 407 262 q 399 187 364 124 q 329 61 282 24 q 234 -13 188 -13 q 141 -13 113 24 q 85 62 88 112 z"},"O":{"x_min":0,"x_max":654,"ha":654,"o":"m 56 240 q 56 278 63 313 q 79 405 130 479 q 180 553 254 594 q 327 636 410 636 q 482 636 534 604 q 586 572 614 516 q 641 459 641 387 q 641 348 634 313 q 617 216 564 142 q 511 69 436 28 q 361 -12 282 -12 q 212 -12 161 20 q 110 53 83 110 q 56 168 56 240 z m 536 260 q 545 310 545 357 q 545 430 524 488 q 504 546 464 579 q 425 612 371 612 q 294 612 237 546 q 180 479 160 366 q 151 318 151 271 q 151 199 172 140 q 192 82 231 48 q 270 14 325 14 q 401 14 458 80 q 515 145 536 260 z"},"(":{"x_min":0,"x_max":287,"ha":287,"o":"m 63 183 q 63 238 74 304 q 99 445 172 558 q 246 671 349 725 l 350 725 q 353 725 355 722 q 357 719 355 717 q 284 645 238 544 q 193 443 170 304 q 155 217 155 141 q 155 1 208 -109 l 208 -110 q 208 -113 206 -116 q 203 -118 201 -117 q 132 -75 98 2 q 63 80 63 183 z"},"C":{"x_min":0,"x_max":587,"ha":587,"o":"m 55 242 q 55 273 62 315 q 79 412 136 485 q 193 558 272 597 q 351 636 435 636 q 476 636 518 627 q 560 618 583 605 q 589 601 590 597 q 592 593 591 582 l 577 455 q 576 452 572 452 q 567 452 566 455 q 552 531 508 571 q 463 611 395 611 q 305 611 242 540 q 179 469 160 346 q 154 304 154 264 q 154 191 174 132 q 195 73 234 40 q 273 6 325 6 q 432 6 536 157 q 537 159 540 159 q 543 159 546 158 q 548 156 547 154 l 519 41 q 516 29 513 24 q 510 20 501 18 q 411 -12 319 -12 q 182 -12 118 60 q 55 133 55 242 z"},"W":{"x_min":0,"x_max":825,"ha":825,"o":"m 902 613 q 868 613 834 585 q 799 557 777 506 l 559 0 q 558 -4 549 -4 q 541 -4 540 0 l 451 477 l 231 0 q 230 -4 221 -4 q 213 -4 212 0 l 139 544 q 133 586 120 600 q 108 613 81 613 q 78 613 78 619 q 78 625 81 625 l 105 624 q 127 622 149 622 q 201 622 243 624 q 255 625 273 625 q 276 625 276 619 q 276 613 273 613 q 246 613 236 606 q 226 598 226 576 q 226 555 230 530 l 279 163 l 493 625 q 495 628 503 628 q 511 628 512 625 l 601 157 l 751 506 q 768 548 768 572 q 768 613 722 613 q 720 613 720 619 q 720 625 722 625 l 763 624 q 797 622 821 622 q 839 622 863 624 l 902 625 q 904 625 904 619 q 904 613 902 613 z"},"A":{"x_min":0,"x_max":603,"ha":603,"o":"m 570 0 q 555 0 521 2 q 485 4 462 4 q 440 4 406 2 q 374 0 359 0 q 355 0 355 6 q 355 12 359 12 q 391 12 405 21 q 419 30 419 53 q 419 60 415 84 l 373 307 l 227 307 l 130 130 q 102 81 102 54 q 102 31 120 22 q 138 12 175 12 q 179 12 178 6 q 178 0 174 0 q 161 0 125 2 q 81 4 58 4 q 37 4 9 2 q -19 0 -34 0 q -38 0 -38 6 q -38 12 -34 12 q -6 12 30 42 q 67 72 101 132 l 382 634 q 384 637 390 637 q 393 637 396 636 q 399 635 400 633 l 502 84 q 508 52 513 38 q 518 25 530 18 q 543 12 570 12 q 574 12 574 6 q 574 0 570 0 z m 241 332 l 369 332 l 336 505 z"},"f":{"x_min":0,"x_max":266,"ha":266,"o":"m 406 671 q 403 653 390 643 q 378 633 361 633 q 338 633 330 644 q 321 655 316 676 q 312 692 308 700 q 303 707 291 707 q 257 707 232 642 q 208 576 188 439 l 179 378 l 221 381 q 271 385 276 385 q 280 385 282 382 q 284 378 283 374 q 280 364 270 352 q 260 339 251 340 q 248 340 226 344 q 204 348 175 350 l 120 -21 q 106 -118 86 -173 q 67 -228 38 -252 q 8 -275 -37 -275 q -77 -275 -99 -260 q -121 -245 -117 -223 q -115 -206 -102 -196 q -90 -186 -74 -186 q -53 -186 -45 -197 q -37 -208 -33 -228 q -30 -242 -26 -249 q -22 -256 -12 -256 q -1 -256 6 -240 q 13 -225 21 -182 q 29 -140 43 -47 l 94 306 q 96 328 96 332 q 96 351 86 356 q 76 360 43 360 q 40 360 40 366 q 40 374 43 374 q 77 374 92 384 q 106 393 110 418 q 130 541 156 606 q 181 672 220 699 q 259 726 322 726 q 363 726 386 710 q 409 694 406 671 z"},"Q":{"x_min":0,"x_max":654,"ha":654,"o":"m 696 -185 q 647 -199 618 -199 q 550 -199 482 -147 q 415 -95 366 0 q 324 -12 282 -12 q 212 -12 161 20 q 110 53 83 110 q 56 168 56 240 q 56 278 63 313 q 79 405 130 479 q 180 553 254 594 q 327 636 410 636 q 482 636 534 604 q 586 572 614 516 q 641 459 641 387 q 641 348 634 313 q 618 221 568 149 q 519 77 449 36 q 472 -24 510 -73 q 548 -122 588 -150 q 629 -178 659 -178 q 672 -178 692 -174 q 695 -173 696 -178 q 698 -183 696 -185 z m 151 271 q 151 199 172 140 q 192 82 231 48 q 270 14 325 14 q 401 14 458 80 q 515 145 536 260 q 545 310 545 357 q 545 430 524 488 q 504 546 464 579 q 425 612 371 612 q 294 612 237 546 q 180 479 160 366 q 151 318 151 271 z"},"w":{"x_min":0,"x_max":625,"ha":625,"o":"m 592 309 q 592 289 589 262 q 581 187 549 124 q 517 61 474 24 q 430 -13 388 -13 q 332 -13 305 51 q 246 -13 188 -13 q 144 -13 120 16 q 95 46 95 96 q 95 112 98 130 q 109 193 162 291 q 169 304 169 311 q 169 319 157 319 l 108 319 q 72 319 57 309 q 42 299 33 272 q 32 269 27 269 q 24 269 22 271 q 20 273 21 276 q 37 323 48 346 q 60 368 77 378 q 94 387 124 387 l 216 387 q 227 387 227 383 q 227 380 224 375 q 202 325 184 270 q 166 216 161 178 q 158 162 158 147 q 158 104 178 79 q 197 54 230 54 q 261 54 294 84 q 285 119 285 162 q 285 199 293 249 q 305 319 326 356 q 348 392 376 392 q 416 392 416 331 q 416 321 412 291 q 397 187 344 103 q 378 54 430 54 q 458 54 485 76 q 512 98 530 138 q 547 178 547 228 q 547 254 539 270 q 531 287 514 307 q 503 319 497 329 q 491 339 491 352 q 491 374 506 385 q 520 396 541 396 q 592 396 592 309 z m 312 220 q 312 172 331 128 q 349 155 362 188 q 375 220 379 251 q 381 267 381 272 q 381 292 374 302 q 366 312 353 312 q 325 312 316 262 q 312 234 312 220 z"},"-":{"x_min":0,"x_max":305,"ha":305,"o":"m 27 199 q 27 214 29 214 l 279 261 q 281 262 282 252 q 284 241 284 230 q 284 212 281 212 l 33 165 q 30 164 28 176 q 27 188 27 199 z"},"E":{"x_min":0,"x_max":525,"ha":525,"o":"m 521 616 l 500 485 q 500 482 496 482 q 493 482 490 484 q 488 485 488 486 q 488 541 458 574 q 427 606 377 606 l 338 606 q 308 606 294 602 q 280 597 274 584 q 268 571 263 543 l 227 338 l 349 338 q 392 338 415 355 q 438 372 446 412 q 447 417 453 416 q 459 416 458 411 l 449 360 q 446 346 442 325 q 438 305 435 279 q 433 269 431 256 q 429 242 426 225 q 425 221 419 222 q 413 222 414 226 q 416 235 416 250 q 416 312 342 312 l 222 312 l 182 85 q 179 67 179 55 q 179 34 191 27 q 203 20 234 20 l 288 20 q 339 20 388 57 q 437 94 469 156 q 469 158 473 158 q 476 158 478 156 q 481 155 480 154 q 462 96 447 15 q 445 7 442 4 q 438 0 431 0 l 19 0 q 16 0 16 6 q 16 12 19 12 q 48 12 62 17 q 76 22 83 36 q 90 50 96 81 l 178 544 q 182 570 182 576 q 182 598 170 606 q 157 613 125 613 q 123 613 123 619 q 123 625 125 625 l 515 625 q 523 625 521 616 z"},"s":{"x_min":0,"x_max":311,"ha":311,"o":"m 6 51 q 6 72 18 83 q 30 94 47 94 q 61 94 70 85 q 80 76 89 60 q 102 39 114 29 q 126 19 148 19 q 169 19 180 30 q 190 42 194 66 q 195 70 195 78 q 195 108 178 130 q 160 151 126 177 q 91 206 74 227 q 57 248 57 278 q 57 308 76 335 q 96 362 130 379 q 163 396 202 396 q 246 396 272 380 q 298 364 295 339 q 292 322 280 312 q 268 303 254 303 q 236 303 227 311 q 218 319 209 336 q 200 353 190 362 q 181 370 162 370 q 144 370 133 360 q 122 351 120 336 q 119 332 119 324 q 119 298 136 277 q 153 256 186 229 q 222 198 240 176 q 258 153 258 122 q 258 94 238 62 q 218 31 184 10 q 149 -11 106 -11 q 65 -11 36 7 q 6 25 6 51 z"},">":{"x_min":0,"x_max":407,"ha":407,"o":"m 376 189 q 376 175 371 172 l 37 25 q 34 24 32 30 q 30 35 30 44 q 30 53 32 61 q 34 69 37 70 l 315 189 l 37 308 q 34 309 32 317 q 30 325 30 334 q 30 343 32 350 q 34 356 37 354 l 371 206 q 376 204 376 189 z"},"l":{"x_min":0,"x_max":244,"ha":244,"o":"m 49 44 q 49 59 54 89 l 148 599 q 151 616 151 628 q 151 656 131 656 q 117 656 87 642 l 85 642 q 81 642 80 647 q 79 652 83 653 l 229 725 l 231 725 q 235 725 238 722 q 242 719 241 717 l 128 89 q 125 74 125 63 q 125 38 141 38 q 159 38 198 77 q 200 79 202 79 q 205 79 207 76 q 209 72 206 69 q 172 29 146 10 q 120 -9 93 -9 q 70 -9 60 4 q 49 17 49 44 z"},"8":{"x_min":0,"x_max":450,"ha":450,"o":"m 318 356 q 352 325 372 304 q 391 282 405 254 q 419 225 419 191 q 419 178 416 161 q 407 111 374 71 q 342 31 294 9 q 246 -13 192 -13 q 145 -13 108 6 q 71 24 50 56 q 30 89 30 129 q 30 197 83 260 q 136 324 206 358 q 175 389 158 418 q 142 447 142 483 q 142 491 144 509 q 156 576 206 606 q 257 636 316 636 q 371 636 404 608 q 437 580 437 533 q 437 485 404 439 q 371 393 318 356 z m 357 539 q 357 617 300 617 q 233 617 222 537 q 221 530 221 515 q 221 473 242 440 q 263 407 302 371 q 343 426 353 495 q 357 516 357 539 z m 332 161 q 332 201 316 232 q 300 264 282 283 q 265 302 219 346 q 141 288 124 182 q 120 161 120 136 q 120 78 144 42 q 169 6 212 6 q 254 6 288 40 q 321 74 330 131 q 332 141 332 161 z"},"\\":{"x_min":0,"x_max":305,"ha":305,"o":"m 111 723 q 110 727 120 730 q 129 733 139 733 q 152 733 152 728 l 225 -158 q 226 -162 216 -164 q 206 -167 196 -167 q 184 -167 183 -163 z"},"e":{"x_min":0,"x_max":352,"ha":352,"o":"m 343 351 q 343 305 276 266 q 208 227 113 210 q 109 178 109 163 q 109 102 135 66 q 161 29 210 29 q 233 29 258 36 q 283 44 304 60 l 305 60 q 308 60 310 57 q 313 54 311 52 q 242 -12 158 -12 q 92 -12 58 29 q 24 70 24 134 q 24 157 29 185 q 39 238 72 288 q 106 337 158 368 q 209 399 267 399 q 303 399 323 386 q 343 374 343 351 z m 255 337 q 255 354 244 363 q 233 372 217 372 q 180 372 154 331 q 127 290 115 225 q 241 253 253 324 q 255 334 255 337 z"},"b":{"x_min":0,"x_max":445,"ha":445,"o":"m 430 292 q 430 279 426 251 q 411 170 364 110 q 318 50 260 18 q 201 -13 152 -13 q 102 -13 73 8 q 44 29 44 66 q 44 72 46 84 l 141 599 q 144 616 144 628 q 144 656 124 656 q 110 656 80 642 l 78 642 q 74 642 73 647 q 72 652 76 653 l 222 725 l 224 725 q 228 725 232 722 q 235 719 234 717 l 146 227 q 180 303 234 351 q 289 399 346 399 q 385 399 408 370 q 430 341 430 292 z m 344 269 q 344 301 332 320 q 320 339 295 339 q 237 339 190 272 q 142 205 122 96 q 121 91 121 81 q 121 51 140 32 q 160 14 190 14 q 221 14 251 38 q 281 63 304 110 q 328 157 338 220 q 344 247 344 269 z"},"%":{"x_min":0,"x_max":526,"ha":526,"o":"m 70 403 q 70 443 88 479 q 107 515 138 537 q 169 559 204 559 q 244 559 267 531 q 290 503 290 459 q 290 444 287 429 q 277 375 240 338 q 204 302 158 302 q 118 302 94 330 q 70 358 70 403 z m 66 -9 q 62 -9 52 -2 q 41 6 43 8 l 472 552 q 472 553 474 553 q 479 553 489 545 q 499 537 496 534 l 67 -9 z m 221 422 q 225 450 225 476 q 225 508 218 525 q 210 542 196 542 q 172 542 158 514 q 145 485 138 435 q 134 401 134 386 q 134 355 142 338 q 150 320 167 320 q 191 320 202 346 q 214 372 221 422 z m 265 95 q 265 135 284 172 q 302 208 332 230 q 363 252 398 252 q 438 252 462 224 q 485 195 485 151 q 485 109 466 73 q 448 37 418 16 q 387 -6 353 -6 q 313 -6 289 22 q 265 51 265 95 z m 416 115 q 420 142 420 169 q 420 235 391 235 q 366 235 353 207 q 340 179 333 128 q 329 103 329 77 q 329 12 362 12 q 386 12 398 38 q 409 65 416 115 z"},"m":{"x_min":0,"x_max":682,"ha":682,"o":"m 658 79 q 661 79 663 76 q 665 72 662 69 q 628 29 602 10 q 576 -9 549 -9 q 526 -9 516 4 q 506 17 506 45 q 506 66 510 89 l 540 248 q 545 280 545 296 q 545 348 513 348 q 487 348 458 312 q 428 277 401 208 q 374 139 356 43 l 350 10 q 347 -8 302 -8 q 272 -8 272 -1 q 273 5 278 29 q 284 53 287 74 l 320 249 q 325 279 325 295 q 325 348 291 348 q 265 348 235 311 q 205 274 178 204 q 152 135 135 41 l 129 10 q 124 -8 81 -8 q 51 -8 51 -1 l 56 23 l 66 72 l 107 297 q 109 306 109 320 q 109 349 91 349 q 69 349 30 307 q 29 306 27 306 q 24 306 22 310 q 19 313 22 316 q 57 357 86 376 q 114 395 142 395 q 164 395 174 382 q 185 370 185 344 q 185 336 181 306 l 165 214 q 199 303 244 351 q 288 399 338 399 q 401 399 401 320 q 401 293 396 268 l 386 215 q 421 303 466 351 q 510 399 558 399 q 622 399 622 321 q 622 297 616 267 l 584 89 q 581 74 581 64 q 581 38 598 38 q 615 38 654 77 q 656 79 658 79 z"},"#":{"x_min":0,"x_max":441,"ha":441,"o":"m 422 300 q 422 272 418 272 l 342 272 l 290 118 l 353 118 q 356 118 356 101 q 356 92 354 83 q 353 74 352 74 l 276 74 l 223 -83 q 222 -87 204 -81 q 185 -75 186 -71 l 234 74 l 125 74 l 72 -83 q 71 -87 52 -81 q 34 -75 35 -71 l 83 74 l 24 74 q 23 74 22 81 q 20 88 20 96 q 20 104 22 111 q 23 118 24 118 l 98 118 l 150 272 l 91 272 q 89 272 88 279 q 87 286 87 295 q 87 303 88 310 q 90 317 91 317 l 165 317 l 221 486 q 222 490 240 483 q 259 476 258 472 l 206 317 l 316 317 l 372 486 q 373 490 392 483 q 410 476 409 472 l 357 317 l 420 317 q 422 317 422 300 z m 249 118 l 301 272 l 191 272 l 139 118 z"},",":{"x_min":0,"x_max":231,"ha":231,"o":"m 140 24 q 140 7 136 -9 q 128 -48 98 -88 q 67 -129 23 -160 q 22 -161 20 -161 q 17 -161 15 -157 q 13 -153 16 -151 q 85 -93 96 -27 q 98 -15 98 -12 q 98 -8 96 0 q 86 -8 71 -8 q 48 -8 35 6 q 22 21 22 41 q 22 63 37 78 q 52 93 79 93 q 108 93 124 75 q 140 57 140 24 z"},"n":{"x_min":0,"x_max":472,"ha":472,"o":"m 447 79 q 450 79 452 76 q 455 72 452 69 q 418 29 392 10 q 366 -9 338 -9 q 316 -9 306 4 q 295 17 295 43 q 295 59 300 89 l 329 248 q 334 272 334 296 q 334 348 299 348 q 269 348 238 310 q 206 272 178 200 q 150 127 132 26 l 129 10 q 124 -8 81 -8 q 51 -8 51 -1 l 55 21 q 65 68 66 74 l 107 297 q 109 306 109 320 q 109 349 91 349 q 69 349 30 307 q 29 306 27 306 q 24 306 22 310 q 19 313 22 316 q 57 357 86 376 q 114 395 142 395 q 164 395 174 382 q 185 370 185 344 q 185 336 181 306 l 163 206 q 198 298 245 348 q 292 399 344 399 q 411 399 411 318 q 411 299 406 267 l 373 89 q 370 74 370 64 q 370 38 387 38 q 405 38 444 77 q 446 79 447 79 z"},"h":{"x_min":0,"x_max":452,"ha":452,"o":"m 428 79 q 431 79 433 76 q 435 72 432 69 q 398 29 372 10 q 346 -9 318 -9 q 296 -9 286 4 q 275 17 275 43 q 275 59 280 89 l 309 248 q 314 272 314 296 q 314 348 279 348 q 250 348 218 311 q 187 274 159 202 q 131 131 113 33 l 109 10 q 104 -8 61 -8 q 31 -8 31 -1 l 35 21 q 45 68 46 74 l 143 599 q 146 616 146 627 q 146 642 141 649 q 136 656 125 656 q 111 656 81 642 l 79 642 q 76 642 74 647 q 73 652 77 653 l 223 725 l 225 725 q 229 725 232 722 q 236 719 235 717 l 144 208 q 179 299 226 349 q 272 399 324 399 q 391 399 391 318 q 391 299 386 267 l 353 89 q 350 74 350 64 q 350 38 367 38 q 385 38 424 77 q 426 79 428 79 z"},"z":{"x_min":0,"x_max":344,"ha":344,"o":"m 348 397 q 351 397 355 392 q 359 387 357 386 l 94 89 q 97 90 104 90 q 128 90 162 84 q 196 78 201 77 q 259 67 274 67 q 290 67 300 76 q 311 86 319 108 q 319 109 322 109 q 325 109 328 108 q 331 106 330 104 q 316 55 306 32 q 295 10 284 2 q 273 -5 254 -5 q 230 -5 196 1 q 163 7 154 8 q 92 21 56 22 q 40 22 28 16 q 16 10 1 -7 l 0 -7 q -2 -7 -6 -2 q -11 4 -10 5 l 254 300 q 251 299 244 299 q 223 299 162 312 q 116 323 98 323 q 80 323 69 314 q 58 304 49 282 q 48 279 44 279 q 41 279 39 281 q 37 283 38 287 q 55 339 66 360 q 76 382 88 388 q 100 395 125 394 q 146 393 202 381 q 261 369 291 367 q 307 367 319 373 q 331 379 346 396 z"},"B":{"x_min":0,"x_max":548,"ha":548,"o":"m 507 210 q 507 194 504 177 q 494 127 458 86 q 423 44 370 20 q 316 -4 256 -4 q 228 -4 195 -1 q 182 0 164 1 q 147 2 126 2 l 60 1 q 43 0 13 0 q 11 0 11 6 q 11 12 13 12 q 56 12 73 26 q 90 40 97 83 l 179 546 q 182 564 182 575 q 182 598 170 606 q 157 613 123 613 q 120 613 120 619 q 121 625 123 625 l 170 624 q 210 622 233 622 q 251 622 265 623 q 279 624 289 625 q 318 628 344 628 q 424 628 466 600 q 509 571 509 520 q 509 507 506 493 q 495 446 458 409 q 421 372 360 351 q 429 342 468 304 q 507 266 507 210 z m 230 352 l 267 351 q 328 351 368 392 q 409 432 422 495 q 426 519 426 528 q 426 568 401 589 q 376 610 327 610 q 298 610 284 595 q 270 580 263 539 z m 416 209 q 416 264 382 295 q 349 326 281 326 q 247 326 225 324 l 182 78 q 179 63 179 52 q 179 32 192 24 q 206 16 241 16 q 382 16 411 163 q 416 190 416 209 z"},"K":{"x_min":0,"x_max":615,"ha":615,"o":"m 645 613 q 606 613 556 590 q 507 567 462 525 l 322 397 l 417 211 q 468 115 492 76 q 517 36 534 24 q 550 12 576 12 q 579 12 579 6 q 579 0 576 0 l 485 0 q 437 0 426 6 q 415 11 392 63 q 369 115 348 156 l 255 336 l 214 299 l 175 81 q 174 74 172 60 q 169 47 169 40 q 169 23 180 18 q 192 12 225 12 q 228 12 228 6 q 228 0 225 0 q 197 0 182 1 l 118 2 l 56 1 q 40 0 12 0 q 9 0 9 6 q 9 12 12 12 q 41 12 56 17 q 70 22 78 36 q 85 51 91 81 l 173 544 q 177 570 177 576 q 177 598 164 606 q 152 613 119 613 q 117 613 117 619 q 117 625 119 625 l 164 624 q 202 622 225 622 q 249 622 289 624 l 335 625 q 337 625 337 619 q 337 613 335 613 q 306 613 292 607 q 277 601 270 587 q 263 573 257 542 l 219 328 l 438 531 q 472 562 472 586 q 472 613 429 613 q 427 613 427 619 q 427 625 429 625 l 475 624 q 521 622 550 622 q 580 622 612 624 l 645 625 q 648 625 648 619 q 648 613 645 613 z"},"R":{"x_min":0,"x_max":628,"ha":628,"o":"m 603 0 l 467 0 q 444 0 402 82 q 360 164 308 324 q 275 317 249 317 q 240 317 230 319 l 188 81 q 184 62 184 46 q 184 26 196 19 q 209 12 243 12 q 247 12 247 6 q 247 0 244 0 q 213 0 196 1 l 131 2 l 65 1 q 48 0 18 0 q 14 0 14 6 q 14 12 18 12 q 49 12 65 18 q 81 23 89 37 q 97 51 103 81 l 185 544 q 189 570 189 577 q 189 598 176 606 q 163 613 129 613 q 125 613 125 619 q 125 625 129 625 l 175 624 q 215 622 240 622 q 256 622 270 623 q 285 624 296 625 q 324 628 347 628 q 423 628 462 602 q 501 577 501 530 q 501 478 466 430 q 431 382 376 351 q 427 223 464 150 q 502 77 535 44 q 568 12 603 12 q 607 12 607 6 q 607 0 603 0 z m 268 342 q 330 342 362 372 q 394 401 404 469 q 408 492 408 514 q 408 563 388 586 q 367 609 334 609 q 309 609 298 606 q 288 602 282 588 q 276 575 270 542 l 235 345 q 250 342 268 342 z"},"T":{"x_min":0,"x_max":553,"ha":553,"o":"m 123 12 q 159 12 177 17 q 195 22 204 36 q 212 51 218 81 l 299 544 q 302 562 302 574 q 302 592 293 598 q 284 604 261 604 l 245 604 q 193 604 149 562 q 105 520 85 452 q 84 449 78 450 q 73 451 74 454 q 82 480 98 546 q 113 611 120 647 q 121 650 127 650 q 133 649 132 646 q 129 625 171 625 q 245 622 354 622 q 405 622 467 624 l 530 625 q 560 625 575 630 q 590 635 596 650 q 598 653 603 652 q 608 652 607 648 q 598 617 583 548 q 568 479 565 454 q 564 450 558 450 q 552 451 553 455 q 557 483 557 494 q 557 545 530 574 q 504 604 456 604 l 440 604 q 410 604 400 592 q 390 580 384 542 l 303 81 q 299 57 299 50 q 299 27 315 20 q 331 12 375 12 q 377 12 377 6 q 377 0 375 0 q 342 0 323 1 l 248 2 l 176 1 q 156 0 123 0 q 120 0 120 6 q 120 12 123 12 z"},"P":{"x_min":0,"x_max":522,"ha":522,"o":"m 14 12 q 44 12 58 17 q 73 22 80 36 q 88 51 93 81 l 175 544 q 179 570 179 577 q 179 598 166 606 q 154 613 122 613 q 119 613 119 619 q 119 625 122 625 l 164 624 q 204 622 228 622 q 239 622 275 624 q 323 628 349 628 q 431 628 481 592 q 531 557 531 489 q 531 473 528 453 q 516 390 476 346 q 435 303 382 282 q 330 262 281 262 q 256 262 240 267 q 239 267 239 270 q 239 275 241 280 q 243 286 245 285 q 258 281 275 281 q 331 281 375 320 q 419 358 431 433 q 435 453 435 476 q 435 537 404 573 q 374 609 329 609 q 303 609 290 604 q 278 599 271 586 q 264 572 258 542 l 177 81 q 173 55 173 48 q 173 27 186 20 q 198 12 230 12 q 233 12 233 6 q 233 0 230 0 q 202 0 186 1 l 120 2 l 58 1 q 42 0 14 0 q 12 0 12 6 q 12 12 14 12 z"},"|":{"x_min":0,"x_max":152,"ha":152,"o":"m 20 -160 q 11 -160 3 -158 q -5 -155 -4 -151 l 151 731 q 152 736 167 736 q 177 736 185 734 q 193 731 192 727 l 36 -154 q 35 -160 20 -160 z"},"t":{"x_min":0,"x_max":299,"ha":299,"o":"m 306 376 q 306 368 295 354 q 284 339 274 339 q 270 339 239 344 q 208 349 172 350 l 129 109 q 126 96 126 84 q 126 37 177 37 q 217 37 265 77 l 266 77 q 270 77 273 74 q 276 71 273 68 q 227 25 192 6 q 158 -12 124 -12 q 48 -12 48 57 q 48 71 51 87 l 91 306 q 94 324 94 335 q 94 350 86 355 q 79 360 57 360 q 54 360 54 366 q 54 374 57 374 q 98 374 127 398 q 156 421 173 459 q 174 461 180 461 q 184 461 188 460 q 192 458 191 457 l 177 377 q 203 378 224 380 q 245 381 261 382 q 286 385 299 385 q 306 385 306 376 z"},"M":{"x_min":0,"x_max":739,"ha":739,"o":"m 768 613 q 733 613 716 600 q 699 586 693 546 l 624 81 q 621 63 621 50 q 621 27 633 20 q 645 12 678 12 q 681 12 681 6 q 681 0 678 0 q 651 0 635 1 l 570 2 l 507 1 q 491 0 463 0 q 460 0 460 6 q 460 12 463 12 q 493 12 507 17 q 521 22 528 36 q 535 51 540 81 l 611 559 l 333 7 q 331 3 326 3 q 321 3 319 8 l 207 536 l 132 123 q 128 93 128 83 q 128 48 142 30 q 156 12 183 12 q 186 12 186 6 q 186 0 183 0 q 161 0 149 1 l 98 2 l 53 1 q 40 0 15 0 q 12 0 12 6 q 12 12 15 12 q 49 12 73 40 q 97 69 107 121 l 192 578 q 171 613 123 613 q 121 613 121 619 q 121 625 123 625 q 140 625 149 624 l 184 623 l 234 624 q 243 625 255 625 q 266 625 272 615 q 279 605 286 573 l 378 137 l 609 600 q 622 625 645 625 q 657 625 666 624 l 702 623 l 741 624 q 750 625 768 625 q 770 625 770 619 q 770 613 768 613 z"},"g":{"x_min":0,"x_max":420,"ha":420,"o":"m 393 409 q 396 409 399 408 q 402 406 401 405 l 320 -43 q 299 -157 239 -219 q 179 -281 90 -281 q 39 -281 7 -261 q -25 -241 -25 -209 q -25 -185 -12 -173 q 2 -161 21 -161 q 39 -161 46 -172 q 54 -182 61 -204 q 69 -231 81 -246 q 93 -260 124 -260 q 162 -260 191 -219 q 220 -178 241 -66 l 282 169 q 242 85 188 36 q 133 -13 82 -13 q 51 -13 34 6 q 17 24 17 62 q 17 131 60 210 q 104 290 168 344 q 233 399 291 399 q 310 399 328 392 q 347 386 360 373 q 380 390 389 407 q 391 409 393 409 z m 302 289 q 302 320 287 338 q 272 355 244 355 q 212 355 182 330 q 152 304 130 260 q 109 215 100 160 q 96 136 96 114 q 96 52 137 52 q 173 52 212 93 q 250 134 276 191 q 302 248 302 289 z"},"j":{"x_min":0,"x_max":246,"ha":246,"o":"m 134 557 q 134 579 148 592 q 163 606 187 606 q 211 606 224 592 q 237 579 237 557 q 237 532 224 518 q 211 504 187 504 q 162 504 148 518 q 134 532 134 557 z m -101 -223 q -99 -205 -87 -196 q -75 -186 -60 -186 q -39 -186 -32 -197 q -24 -208 -20 -228 q -17 -243 -13 -250 q -9 -257 0 -257 q 12 -257 20 -240 q 27 -223 35 -184 q 43 -145 60 -52 l 121 297 q 123 306 123 320 q 123 349 105 349 q 83 349 44 307 q 43 306 41 306 q 38 306 36 310 q 33 313 36 316 q 71 357 100 376 q 128 395 156 395 q 178 395 188 382 q 199 370 199 344 q 199 336 195 306 l 137 -27 q 121 -122 101 -175 q 81 -228 52 -252 q 23 -275 -22 -275 q -61 -275 -83 -260 q -105 -245 -101 -223 z"},"i":{"x_min":0,"x_max":247,"ha":247,"o":"m 120 557 q 120 579 134 592 q 149 606 173 606 q 197 606 210 592 q 223 579 223 557 q 223 532 210 518 q 197 504 173 504 q 148 504 134 518 q 120 532 120 557 z m 63 43 q 63 62 69 89 l 110 297 q 113 311 113 321 q 113 349 94 349 q 70 349 33 307 q 32 306 30 306 q 26 306 24 310 q 22 313 24 316 q 60 357 88 376 q 117 395 144 395 q 188 395 188 346 q 188 331 183 306 l 142 89 q 139 74 139 64 q 139 38 156 38 q 173 38 214 76 q 216 78 218 78 q 221 78 223 74 q 225 71 222 68 q 188 28 161 10 q 134 -9 107 -9 q 63 -9 63 43 z"},"y":{"x_min":0,"x_max":445,"ha":445,"o":"m 421 388 q 421 378 406 312 l 336 -70 q 319 -166 262 -224 q 206 -281 121 -281 q 71 -281 40 -262 q 9 -243 9 -214 q 9 -208 10 -205 q 14 -182 26 -171 q 39 -160 55 -160 q 73 -160 80 -170 q 88 -181 95 -203 q 103 -230 116 -245 q 129 -260 161 -260 q 193 -260 218 -224 q 242 -187 259 -94 l 308 180 q 273 88 226 38 q 180 -13 128 -13 q 60 -13 60 66 q 60 89 66 119 l 101 297 q 104 312 104 322 q 104 348 87 348 q 77 348 64 338 q 50 329 30 309 q 28 307 27 307 q 24 307 22 310 q 20 314 22 317 q 57 357 83 376 q 109 395 135 395 q 179 395 179 342 q 179 325 174 297 l 142 138 q 137 108 137 91 q 137 38 173 38 q 202 38 234 77 q 265 116 294 190 q 322 263 341 363 l 344 380 q 345 386 356 390 q 367 394 385 394 q 408 394 414 392 q 421 391 421 388 z"},"@":{"x_min":0,"x_max":726,"ha":726,"o":"m 403 112 q 403 128 407 144 l 411 164 q 377 113 337 82 q 297 52 263 52 q 238 52 222 68 q 206 83 206 116 q 206 122 208 138 q 216 192 250 243 q 284 294 330 326 q 376 358 416 358 q 449 358 466 335 q 489 348 493 365 q 495 367 501 367 q 513 367 511 364 l 470 140 q 467 127 467 115 q 467 78 505 78 q 530 78 556 96 q 581 115 598 151 q 616 187 616 236 q 616 302 584 357 q 551 412 494 444 q 438 477 368 477 q 292 477 236 440 q 180 402 151 339 q 122 276 122 200 q 122 119 156 58 q 190 -3 252 -36 q 315 -69 397 -69 q 444 -69 482 -58 q 521 -48 564 -20 l 565 -20 q 567 -20 570 -24 q 572 -27 570 -28 q 518 -71 467 -87 q 416 -103 362 -103 q 279 -103 212 -70 q 144 -37 105 26 q 66 89 66 175 q 66 269 112 343 q 159 417 236 458 q 314 500 402 500 q 480 500 540 468 q 600 436 632 383 q 665 330 665 267 q 665 210 638 161 q 611 112 565 83 q 519 54 465 54 q 403 54 403 112 z m 431 273 q 433 287 433 292 q 433 311 425 323 q 417 335 403 335 q 366 335 332 290 q 297 244 285 183 q 281 166 281 146 q 281 108 305 108 q 326 108 352 133 q 379 158 401 196 q 423 235 431 273 z"},".":{"x_min":0,"x_max":204,"ha":204,"o":"m 22 43 q 22 66 36 80 q 50 93 75 93 q 99 93 112 80 q 125 66 125 43 q 125 19 112 5 q 99 -9 75 -9 q 50 -9 36 5 q 22 19 22 43 z"},"p":{"x_min":0,"x_max":406,"ha":406,"o":"m 388 288 q 388 271 385 253 q 375 186 338 128 q 302 69 250 34 q 199 -1 145 -1 q 125 -1 99 1 l 67 -178 q 64 -196 64 -207 q 64 -223 72 -230 q 79 -237 96 -237 q 100 -237 118 -235 q 122 -234 123 -240 q 124 -245 120 -246 l -64 -275 q -67 -276 -68 -270 q -70 -264 -66 -263 q -45 -259 -35 -252 q -25 -246 -20 -232 q -15 -218 -9 -185 l 76 293 q 41 269 27 259 q 26 258 24 258 q 21 258 19 262 q 17 266 20 268 q 40 285 80 315 l 93 386 q 93 388 113 402 q 133 415 149 430 q 165 444 169 462 q 170 466 176 465 q 181 464 180 460 l 163 363 q 228 393 285 393 q 335 393 362 366 q 388 339 388 288 z m 308 250 q 308 348 225 348 q 191 348 158 335 l 106 43 q 139 28 179 28 q 232 28 264 80 q 295 132 306 220 q 308 240 308 250 z"},"X":{"x_min":0,"x_max":580,"ha":580,"o":"m 624 613 q 593 613 554 586 q 514 560 473 508 l 347 348 l 449 83 q 464 44 483 28 q 502 12 535 12 q 539 12 539 6 q 539 0 535 0 q 510 0 496 1 l 444 2 l 369 1 q 350 0 319 0 q 315 0 316 6 q 316 12 319 12 q 340 12 354 19 q 368 26 368 39 q 368 47 366 51 l 280 275 l 144 100 q 116 65 116 43 q 116 12 169 12 q 173 12 173 6 q 173 0 169 0 q 139 0 121 1 l 49 2 l 11 1 q -1 0 -26 0 q -30 0 -30 6 q -30 12 -26 12 q 6 12 44 38 q 83 63 124 115 l 270 300 l 178 542 q 164 580 146 596 q 129 613 102 613 q 99 613 99 619 q 99 625 102 625 q 114 625 138 623 l 173 622 q 202 622 250 624 l 298 625 q 301 625 301 619 q 301 613 298 613 q 280 613 269 606 q 258 600 258 587 q 258 581 261 573 l 338 373 l 453 523 q 482 561 482 582 q 482 613 429 613 q 425 613 425 619 q 425 625 429 625 l 477 624 q 521 622 550 622 q 564 622 588 624 l 624 625 q 629 625 629 619 q 629 613 624 613 z"},"*":{"x_min":0,"x_max":448,"ha":448,"o":"m 241 660 q 238 671 274 682 q 309 692 333 692 q 344 692 343 688 l 276 529 q 275 526 270 526 q 266 526 265 529 z m 113 528 q 103 529 103 561 q 103 585 108 612 q 114 638 118 634 l 247 521 q 248 520 248 518 q 248 515 246 512 q 245 510 243 511 z m 291 503 q 289 503 288 508 q 286 512 289 513 l 403 576 q 411 581 428 560 q 444 538 456 513 q 467 488 461 488 z m 188 362 q 176 362 152 371 q 129 380 112 390 q 94 401 98 404 l 245 491 l 247 492 q 249 492 252 490 q 255 487 254 485 l 198 366 q 197 362 188 362 z m 273 481 l 273 482 q 273 484 276 486 q 280 488 281 487 l 377 398 q 384 392 368 370 q 352 347 332 328 q 311 309 310 315 z"},"Y":{"x_min":0,"x_max":533,"ha":533,"o":"m 603 613 q 539 613 469 509 l 334 311 l 293 81 q 289 55 289 49 q 289 27 303 20 q 317 12 355 12 q 358 12 358 6 q 358 0 355 0 q 325 0 308 1 l 239 2 l 169 1 q 152 0 122 0 q 118 0 118 6 q 118 12 122 12 q 155 12 171 17 q 187 22 196 36 q 204 51 209 81 l 246 301 l 144 542 q 128 580 111 596 q 94 613 72 613 q 68 613 68 619 q 68 625 72 625 l 114 624 q 144 622 159 622 q 184 622 228 624 l 274 625 q 277 625 277 620 q 277 613 273 613 q 247 613 236 608 q 224 603 224 592 q 224 585 229 573 l 326 338 l 450 525 q 470 556 470 577 q 470 594 458 604 q 446 613 425 613 q 421 613 421 619 q 421 625 425 625 l 471 624 q 511 622 536 622 q 551 622 571 624 l 603 625 q 607 625 607 619 q 607 613 603 613 z"},"c":{"x_min":0,"x_max":346,"ha":346,"o":"m 26 146 q 26 170 31 202 q 42 260 77 305 q 112 350 159 374 q 206 399 252 399 q 288 399 316 384 q 343 368 343 340 q 343 319 332 306 q 320 294 298 294 q 260 294 253 335 q 248 352 239 362 q 230 373 211 373 q 175 373 150 336 q 124 298 114 236 q 108 203 108 172 q 108 108 134 70 q 161 31 214 31 q 237 31 263 42 q 289 52 308 67 l 309 67 q 312 67 315 64 q 318 61 316 58 q 278 22 238 4 q 197 -13 159 -13 q 91 -13 58 32 q 26 78 26 146 z"},"!":{"x_min":0,"x_max":219,"ha":219,"o":"m 102 192 q 124 460 128 621 q 128 625 148 629 q 167 633 186 633 q 207 633 226 629 q 244 625 242 621 q 183 467 113 191 q 112 186 106 186 q 101 187 102 192 z m 34 43 q 34 66 48 80 q 62 93 87 93 q 111 93 124 80 q 137 66 137 43 q 137 19 124 5 q 111 -9 87 -9 q 62 -9 48 5 q 34 19 34 43 z"},"/":{"x_min":0,"x_max":305,"ha":305,"o":"m -48 -155 l 336 734 q 338 738 348 736 q 358 733 367 728 q 376 722 374 718 l -9 -169 q -10 -172 -20 -170 q -31 -167 -40 -162 q -49 -157 -48 -155 z"},"[":{"x_min":0,"x_max":251,"ha":251,"o":"m 14 -106 l 159 715 q 160 722 162 724 q 164 725 169 725 l 315 725 q 319 725 319 719 q 319 713 315 713 q 281 713 264 707 q 246 701 238 686 q 229 672 224 642 l 105 -34 q 102 -52 102 -65 q 102 -88 116 -96 q 131 -105 169 -105 q 174 -105 174 -111 q 174 -117 169 -117 l 20 -117 q 15 -117 14 -115 q 13 -113 14 -106 z"},"6":{"x_min":0,"x_max":455,"ha":455,"o":"m 49 152 q 49 184 57 226 q 74 323 127 412 q 180 501 260 562 q 340 622 434 636 q 437 637 439 632 q 441 626 437 625 q 361 601 300 543 q 240 485 200 406 q 161 328 147 243 q 140 196 140 158 q 140 93 159 51 q 178 9 220 9 q 294 9 318 130 q 324 165 324 197 q 324 247 308 277 q 293 307 261 307 q 229 307 201 282 q 200 281 198 281 q 195 281 192 284 q 190 287 191 289 q 209 313 238 326 q 267 340 297 340 q 356 340 386 302 q 415 265 415 207 q 415 186 410 159 q 395 79 336 33 q 278 -13 202 -13 q 125 -13 87 32 q 49 76 49 152 z"},"r":{"x_min":0,"x_max":351,"ha":351,"o":"m 358 336 q 356 322 345 310 q 334 299 318 299 q 300 299 282 317 q 276 322 270 326 q 264 330 257 330 q 238 330 211 276 q 184 221 160 144 q 136 68 126 10 q 124 2 112 -3 q 99 -8 78 -8 q 48 -8 48 -1 l 53 20 q 55 28 58 42 q 61 55 64 74 l 102 284 q 106 310 106 317 q 106 349 86 349 q 64 349 27 310 q 26 309 24 309 q 21 309 19 312 q 17 316 19 319 q 54 359 82 377 q 109 395 137 395 q 160 395 170 382 q 181 368 181 340 q 181 323 176 293 l 156 179 q 185 275 220 335 q 255 395 294 395 q 318 395 340 377 q 362 359 358 336 z"},"2":{"x_min":0,"x_max":401,"ha":401,"o":"m -7 19 q -7 23 -5 27 l 19 54 q 116 160 166 220 q 217 281 252 341 q 287 401 297 459 q 301 479 301 498 q 301 579 223 579 q 178 579 145 554 q 112 528 95 485 q 94 482 89 482 q 86 482 84 484 q 82 486 83 489 q 106 557 158 596 q 209 636 272 636 q 329 636 359 603 q 389 570 389 515 q 389 498 386 478 q 377 424 344 372 q 312 320 273 276 q 234 233 172 173 q 161 162 132 134 q 104 106 86 84 q 84 82 85 82 q 86 81 89 81 q 189 81 237 86 q 285 92 305 106 q 325 121 331 152 q 331 155 336 155 q 339 155 342 154 q 344 152 343 150 l 318 8 q 316 0 308 0 l 1 0 q -2 0 -4 6 q -7 12 -7 19 z"},"{":{"x_min":0,"x_max":262,"ha":262,"o":"m 60 -33 q 60 2 73 80 q 89 170 89 211 q 89 249 76 269 q 64 289 34 298 q 32 298 32 304 q 32 311 34 311 q 68 316 89 338 q 110 361 124 406 q 138 450 152 529 q 167 615 186 656 q 204 697 234 711 q 265 725 323 725 q 326 725 326 719 q 326 713 323 713 q 265 713 246 607 q 224 491 208 438 q 191 386 164 358 q 136 329 79 305 q 129 285 148 261 q 167 237 167 195 q 167 175 162 144 q 158 113 154 91 q 151 69 149 60 l 139 1 q 136 -20 136 -37 q 136 -69 147 -87 q 158 -105 177 -105 q 180 -105 180 -111 q 180 -117 177 -117 q 131 -117 106 -110 q 82 -103 71 -86 q 60 -68 60 -33 z"},"9":{"x_min":0,"x_max":455,"ha":455,"o":"m 63 -1 q 177 37 252 140 q 328 243 350 380 q 357 427 357 463 q 357 529 338 572 q 318 615 275 615 q 204 615 180 494 q 173 452 173 424 q 173 375 189 346 q 205 316 237 316 q 267 316 297 342 l 299 343 q 302 343 305 340 q 308 337 306 335 q 265 283 198 283 q 139 283 110 320 q 82 358 82 416 q 82 437 87 464 q 104 545 163 590 q 222 636 300 636 q 374 636 412 593 q 449 550 449 474 q 449 441 441 398 q 422 294 368 206 q 314 117 235 60 q 156 2 64 -13 q 60 -14 60 -8 q 59 -2 63 -1 z"}," ":{"x_min":0,"x_max":234,"ha":234,"o":""},"I":{"x_min":0,"x_max":327,"ha":327,"o":"m 23 12 q 52 12 66 17 q 80 22 88 36 q 95 51 100 81 l 182 544 q 186 570 186 576 q 186 598 174 606 q 161 613 128 613 q 125 613 125 619 q 125 625 128 625 l 174 624 q 212 622 235 622 q 265 622 303 624 l 345 625 q 348 625 348 619 q 348 613 345 613 q 316 613 302 607 q 288 601 280 586 q 273 572 268 542 l 186 81 q 182 62 182 47 q 182 26 194 19 q 207 12 240 12 q 242 12 242 6 q 242 0 240 0 q 213 0 197 1 l 131 2 l 69 1 q 53 0 23 0 q 20 0 20 6 q 20 12 23 12 z"},"H":{"x_min":0,"x_max":674,"ha":674,"o":"m 701 613 q 673 613 658 608 q 644 602 636 588 q 629 573 624 544 l 542 81 q 539 62 539 49 q 539 27 551 20 q 563 12 595 12 q 598 12 598 6 q 598 0 595 0 q 570 0 555 1 l 489 2 l 426 1 q 409 0 380 0 q 378 0 378 6 q 378 12 380 12 q 410 12 424 17 q 438 22 445 36 q 452 50 457 81 l 498 312 l 216 312 l 175 81 q 171 53 171 48 q 171 26 183 19 q 195 12 228 12 q 231 12 231 6 q 231 0 228 0 q 200 0 184 1 l 118 2 l 56 1 q 40 0 12 0 q 9 0 9 6 q 9 12 12 12 q 41 12 56 17 q 70 22 78 36 q 85 51 91 81 l 173 544 q 177 570 177 576 q 177 597 164 605 q 152 613 119 613 q 117 613 117 619 q 117 625 119 625 l 164 624 q 202 622 225 622 q 249 622 289 624 l 335 625 q 337 625 337 619 q 337 613 335 613 q 306 613 292 607 q 277 601 270 586 q 263 572 257 542 l 221 338 l 502 338 l 538 542 q 542 570 542 576 q 542 597 530 605 q 518 613 487 613 q 484 613 484 619 q 484 625 487 625 l 531 624 q 569 622 593 622 q 618 622 656 624 l 701 625 q 703 625 703 619 q 703 613 701 613 z"},"4":{"x_min":0,"x_max":427,"ha":427,"o":"m 381 177 l 309 180 l 292 81 q 289 65 289 54 q 289 29 302 20 q 314 12 341 12 q 346 12 346 6 q 346 0 341 0 q 316 0 301 1 l 242 2 l 170 1 q 151 0 120 0 q 116 0 116 6 q 116 12 120 12 q 157 12 174 16 q 191 21 200 34 q 208 48 214 81 l 232 182 q 112 184 14 184 q 9 184 7 188 q 5 191 9 195 l 375 630 q 377 632 381 632 q 384 632 386 630 q 389 629 388 626 l 319 234 l 388 236 q 392 236 388 206 q 384 177 381 177 z m 240 232 l 286 494 l 75 239 q 68 230 78 230 q 142 230 240 232 z"},"~":{"x_min":0,"x_max":443,"ha":443,"o":"m 44 145 q 42 145 40 148 q 38 151 39 153 q 75 199 100 218 q 125 237 155 237 q 182 237 237 220 q 259 214 281 209 q 303 204 318 204 q 345 204 364 214 q 382 224 398 241 l 400 242 q 402 242 404 239 q 406 236 405 234 q 367 186 342 168 q 318 150 287 150 q 264 150 208 166 q 203 167 174 175 q 145 183 121 183 q 95 183 82 175 q 68 167 46 146 q 46 145 44 145 z"},"D":{"x_min":0,"x_max":628,"ha":628,"o":"m 191 -1 q 179 0 161 1 q 143 2 120 2 l 56 1 q 40 0 12 0 q 9 0 9 6 q 9 12 12 12 q 41 12 56 17 q 70 22 78 36 q 85 51 91 81 l 173 544 q 177 570 177 576 q 177 598 164 606 q 152 613 119 613 q 117 613 117 619 q 117 625 119 625 l 165 624 q 205 622 229 622 q 258 622 288 625 q 328 627 344 627 q 427 627 488 596 q 550 566 584 510 q 617 455 617 383 q 617 355 611 323 q 594 227 538 152 q 483 78 405 37 q 327 -4 246 -4 q 221 -4 191 -1 z m 512 301 q 519 339 519 383 q 519 482 474 546 q 430 609 339 609 q 298 609 281 594 q 264 580 257 542 l 178 92 q 175 76 175 63 q 175 38 190 26 q 205 14 241 14 q 306 14 362 48 q 418 81 457 146 q 496 211 512 301 z"},"^":{"x_min":0,"x_max":353,"ha":353,"o":"m 93 374 q 90 374 87 376 q 84 378 85 380 l 243 629 q 246 634 254 634 q 263 634 263 629 l 333 380 q 333 378 328 376 q 324 374 323 377 l 231 506 l 96 375 q 95 374 93 374 z"},"0":{"x_min":0,"x_max":471,"ha":471,"o":"m 53 202 q 53 250 64 313 q 80 408 117 482 q 154 555 205 596 q 256 637 315 637 q 385 637 422 580 q 460 522 460 423 q 460 373 449 310 q 432 215 396 142 q 359 68 308 28 q 257 -13 199 -13 q 129 -13 91 45 q 53 103 53 202 z m 355 298 q 372 402 372 469 q 372 543 354 582 q 336 620 303 620 q 254 620 216 538 q 177 455 155 320 q 140 233 140 162 q 140 89 158 47 q 176 5 212 5 q 263 5 298 80 q 332 156 355 298 z"},"F":{"x_min":0,"x_max":484,"ha":484,"o":"m 518 616 q 502 513 498 485 q 497 482 491 482 q 485 483 486 486 q 484 541 454 574 q 424 606 374 606 l 335 606 q 305 606 291 602 q 277 597 270 584 q 264 572 259 543 l 221 326 l 325 326 q 369 326 392 344 q 414 361 422 401 q 422 404 428 404 q 430 404 432 402 q 435 401 434 399 q 430 369 422 335 l 418 313 l 403 214 q 402 210 396 210 q 390 210 391 215 q 393 231 393 238 q 393 300 318 300 l 216 300 l 178 85 q 175 69 175 57 q 175 30 194 21 q 213 12 266 12 q 268 12 268 6 q 268 0 266 0 q 242 0 225 1 l 120 2 l 59 1 q 43 0 14 0 q 12 0 12 6 q 12 12 14 12 q 44 12 58 17 q 73 22 80 36 q 88 51 93 81 l 175 544 q 179 570 179 576 q 179 598 166 606 q 154 613 122 613 q 119 613 119 619 q 119 625 122 625 l 512 625 q 520 625 518 616 z"},"`":{"x_min":0,"x_max":166,"ha":166,"o":"m 117 727 q 116 733 135 733 q 154 733 176 728 q 199 722 199 716 l 181 476 q 181 474 176 473 q 172 472 172 475 z"},"k":{"x_min":0,"x_max":414,"ha":414,"o":"m 414 76 q 418 76 420 72 q 422 69 419 67 q 353 -9 314 -9 q 288 -9 270 6 q 251 20 228 58 l 170 156 q 161 170 155 175 q 149 180 139 180 l 109 10 q 104 -8 61 -8 q 31 -8 31 -1 l 35 21 q 45 68 46 74 l 143 599 q 146 616 146 627 q 146 642 141 649 q 136 656 125 656 q 111 656 81 642 l 79 642 q 76 642 74 647 q 73 652 77 653 l 223 725 l 225 725 q 229 725 232 722 q 236 719 235 717 l 165 323 q 201 358 244 378 q 287 399 329 399 q 364 399 378 384 q 393 369 393 348 q 393 309 348 271 q 303 233 225 205 l 290 99 q 310 66 324 55 q 337 44 353 44 q 376 44 411 75 q 412 76 414 76 z m 144 206 l 142 197 q 221 216 258 244 q 295 271 300 314 q 305 360 272 360 q 228 360 192 318 q 157 276 144 206 z"},"u":{"x_min":0,"x_max":472,"ha":472,"o":"m 446 80 q 449 80 451 76 q 453 73 451 70 q 415 29 386 10 q 358 -9 330 -9 q 308 -9 298 3 q 288 15 288 41 q 288 60 292 80 l 309 181 q 274 89 228 38 q 181 -13 129 -13 q 61 -13 61 67 q 61 94 66 119 l 102 297 q 105 312 105 322 q 105 348 88 348 q 78 348 64 338 q 50 328 31 309 q 29 307 27 307 q 24 307 22 310 q 20 314 23 317 q 58 358 84 376 q 109 395 136 395 q 180 395 180 341 q 180 325 175 297 l 143 138 q 137 110 137 90 q 137 38 173 38 q 203 38 235 77 q 267 116 296 191 q 324 266 342 369 l 343 376 q 348 394 391 394 q 421 394 421 387 l 417 365 q 407 318 406 312 l 365 89 q 363 80 363 66 q 363 37 381 37 q 403 37 443 79 q 444 80 446 80 z"},"]":{"x_min":0,"x_max":250,"ha":250,"o":"m 276 714 l 131 -107 q 130 -114 128 -116 q 126 -117 121 -117 l -25 -117 q -29 -117 -29 -111 q -29 -105 -25 -105 q 9 -105 26 -99 q 44 -93 52 -78 q 61 -64 66 -34 l 185 642 q 188 660 188 673 q 188 696 174 704 q 159 713 121 713 q 117 713 117 719 q 117 725 121 725 l 270 725 q 275 725 276 723 q 277 721 276 714 z"},"U":{"x_min":0,"x_max":710,"ha":710,"o":"m 730 613 q 702 613 688 608 q 673 602 666 588 q 658 574 652 544 l 570 81 q 567 63 567 50 q 567 27 582 20 q 596 12 636 12 q 640 12 640 6 q 640 0 636 0 l 549 1 l 487 0 q 479 0 476 2 q 474 3 474 9 l 475 19 l 484 71 q 431 27 382 8 q 334 -12 281 -12 q 195 -12 144 31 q 93 74 93 148 q 93 167 96 186 l 159 544 q 163 563 163 578 q 163 599 151 606 q 139 613 107 613 q 105 613 105 619 q 105 625 107 625 l 151 624 q 189 622 212 622 q 237 622 277 624 l 321 625 q 324 625 324 619 q 324 613 321 613 q 293 613 278 607 q 264 601 257 587 q 250 573 244 542 l 187 221 q 181 190 181 164 q 181 95 216 58 q 252 22 318 22 q 360 22 400 39 q 439 56 488 97 l 566 542 q 570 561 570 577 q 570 598 558 606 q 546 613 515 613 q 513 613 513 619 q 513 625 515 625 l 559 624 q 599 622 622 622 q 644 622 684 624 l 730 625 q 732 625 732 619 q 732 613 730 613 z"},"o":{"x_min":0,"x_max":405,"ha":405,"o":"m 24 137 q 24 165 30 193 q 41 252 72 299 q 104 346 150 372 q 196 399 247 399 q 312 399 347 358 q 382 317 382 250 q 382 223 376 193 q 364 129 330 82 q 295 35 250 10 q 204 -14 157 -14 q 93 -14 58 28 q 24 70 24 137 z m 292 149 q 299 183 299 221 q 299 287 276 331 q 254 375 215 375 q 181 375 154 339 q 126 303 114 236 q 107 194 107 165 q 107 98 130 54 q 152 11 191 11 q 226 11 253 48 q 280 85 292 149 z"},"N":{"x_min":0,"x_max":654,"ha":654,"o":"m 702 613 q 665 613 640 586 q 614 560 605 512 l 513 -8 q 513 -11 508 -12 q 504 -14 499 -14 q 491 -14 488 -10 l 198 529 l 124 113 q 121 97 121 82 q 121 12 185 12 q 187 12 187 6 q 187 0 185 0 q 161 0 148 1 l 94 2 l 45 1 q 30 0 3 0 q 0 0 0 6 q 0 12 3 12 q 40 12 66 38 q 91 64 99 113 l 180 562 q 162 590 145 602 q 128 613 108 613 q 105 613 105 619 q 105 625 108 625 l 150 624 q 164 623 188 623 q 209 623 224 624 q 239 625 245 625 q 251 625 254 622 q 257 618 261 607 q 266 594 277 573 l 512 136 l 580 512 q 583 530 583 544 q 583 578 567 596 q 551 613 520 613 q 517 613 517 619 q 517 625 520 625 l 555 624 q 587 622 610 622 q 627 622 661 624 l 702 625 q 704 625 704 619 q 704 613 702 613 z"},"+":{"x_min":0,"x_max":398,"ha":398,"o":"m 369 190 q 369 181 368 174 q 366 167 364 167 l 221 167 l 221 25 q 221 23 212 22 q 204 20 195 20 q 176 20 176 23 l 176 167 l 34 167 q 32 167 30 174 q 29 182 29 191 q 29 199 30 206 q 31 212 33 212 l 176 212 l 176 354 q 176 356 183 358 q 190 359 199 359 q 207 359 214 358 q 221 356 221 354 l 221 212 l 364 212 q 366 212 368 205 q 369 198 369 190 z"},"G":{"x_min":0,"x_max":632,"ha":632,"o":"m 57 246 q 57 280 63 316 q 80 409 137 482 q 194 555 277 596 q 360 636 453 636 q 495 636 536 628 q 576 619 600 605 q 606 601 607 597 q 608 593 607 582 l 593 455 q 592 452 587 452 q 582 452 582 455 q 568 530 524 571 q 481 612 411 612 q 314 612 248 542 q 183 473 163 353 q 156 310 156 265 q 156 146 211 77 q 266 8 361 8 q 397 8 418 18 q 440 28 452 54 q 465 79 471 126 q 477 162 477 183 q 477 205 469 216 q 461 226 442 230 q 424 233 387 233 q 385 233 384 236 q 382 238 382 241 q 382 244 384 246 q 385 249 387 249 q 459 244 505 244 q 550 244 599 247 q 602 247 602 240 q 603 233 599 233 q 583 234 576 226 q 569 219 564 198 q 560 178 551 116 q 544 75 544 54 q 543 34 541 28 q 540 22 538 20 q 536 18 530 16 q 415 -12 330 -12 q 243 -12 182 21 q 120 54 88 112 q 57 170 57 246 z"},"q":{"x_min":0,"x_max":419,"ha":419,"o":"m 297 -178 q 294 -193 294 -204 q 294 -223 304 -232 q 313 -241 335 -241 q 341 -241 357 -239 l 358 -239 q 361 -239 362 -244 q 363 -249 359 -250 l 161 -275 q 157 -275 156 -270 q 155 -264 159 -263 q 183 -259 194 -253 q 204 -247 210 -232 q 216 -218 222 -185 l 278 133 q 242 64 193 26 q 144 -13 97 -13 q 61 -13 40 10 q 19 33 19 77 q 19 85 21 103 q 31 180 72 248 q 112 316 170 358 q 229 399 293 399 q 311 399 330 392 q 348 386 362 373 q 382 390 391 407 q 393 409 395 409 q 398 409 401 408 q 404 406 403 405 z m 297 239 q 301 260 301 282 q 301 355 238 355 q 187 355 150 309 q 114 263 101 167 q 99 145 99 132 q 99 52 149 52 q 201 52 242 108 q 284 163 297 239 z"},"d":{"x_min":0,"x_max":448,"ha":448,"o":"m 355 89 q 352 73 352 63 q 352 38 368 38 q 378 38 392 48 q 406 57 426 77 q 428 79 429 79 q 432 79 434 76 q 437 72 434 69 q 399 29 373 10 q 347 -9 320 -9 q 276 -9 276 45 q 276 61 281 89 l 295 167 q 253 82 205 34 q 157 -13 107 -13 q 70 -13 46 12 q 21 36 21 87 q 21 105 24 126 q 37 197 80 260 q 123 323 181 361 q 239 399 294 399 q 316 399 337 391 l 376 599 q 379 616 379 627 q 379 642 374 649 q 369 656 358 656 q 344 656 314 642 l 312 642 q 308 642 307 647 q 306 652 310 653 l 457 725 l 459 725 q 463 725 466 722 q 469 719 468 717 z m 313 261 l 314 267 q 316 281 316 286 q 316 319 296 337 q 276 355 244 355 q 189 354 152 308 q 116 262 101 175 q 97 151 97 128 q 97 89 111 70 q 125 50 151 50 q 187 50 221 86 q 255 121 280 171 q 305 221 313 261 z"},"1":{"x_min":0,"x_max":352,"ha":352,"o":"m 14 12 q 71 12 94 26 q 118 41 126 83 l 191 456 q 195 482 195 488 q 195 518 174 518 q 150 518 99 483 l 97 482 q 94 482 92 486 q 90 491 92 492 l 290 633 l 295 634 q 298 634 300 631 q 302 628 301 624 l 205 78 q 202 63 202 53 q 202 28 220 20 q 239 12 289 12 q 292 12 292 6 q 292 0 289 0 q 253 0 231 1 l 153 2 l 71 1 q 49 0 14 0 q 12 0 12 6 q 12 12 14 12 z"},"5":{"x_min":0,"x_max":411,"ha":411,"o":"m 429 656 q 432 656 434 654 q 437 653 436 651 l 409 570 q 405 559 399 556 q 393 553 381 553 l 188 558 q 177 558 171 544 l 129 384 q 175 398 225 398 q 296 398 336 362 q 376 325 376 256 q 376 230 370 200 q 350 99 288 44 q 227 -12 148 -12 q 106 -12 76 8 q 45 27 23 65 l 23 66 q 23 70 28 72 q 32 75 33 71 q 49 46 75 33 q 101 20 132 20 q 189 20 224 66 q 260 111 275 188 q 279 207 279 229 q 279 289 246 328 q 214 366 160 366 q 131 366 102 357 q 93 357 95 368 l 168 613 q 170 620 172 622 q 174 625 181 625 q 307 625 349 626 q 391 628 404 634 q 417 639 425 655 q 426 656 429 656 z"}}}
